<svg xmlns="http://www.w3.org/2000/svg" width="1128" height="415" viewBox="29.5 17.25 1128 415" role="img" aria-labelledby="title desc">
<title id="title">Subject-specific trace validity: regularity versus click volume</title>
<desc id="desc">Adjusted 3-month student-course and assessment fixed-effect models; labels show standardized beta [95% CI].</desc>
<style>text{font-family:Arial,Helvetica,sans-serif}.group{font-size:13px;font-weight:700;fill:#1f2933}.feat{font-size:11.5px}.axis{font-size:11.5px;fill:#53616f}.coef{font-size:9.8px;fill:#222}</style>
<line x1="305.6" y1="18" x2="305.6" y2="393" stroke="#e6e9ee" stroke-width="1"/>
<text x="305.6" y="409.5" text-anchor="middle" class="axis">-0.15</text>
<line x1="398.3" y1="18" x2="398.3" y2="393" stroke="#e6e9ee" stroke-width="1"/>
<text x="398.3" y="409.5" text-anchor="middle" class="axis">-0.10</text>
<line x1="491.0" y1="18" x2="491.0" y2="393" stroke="#e6e9ee" stroke-width="1"/>
<text x="491.0" y="409.5" text-anchor="middle" class="axis">-0.05</text>
<line x1="583.8" y1="18" x2="583.8" y2="393" stroke="#222" stroke-width="1.3"/>
<text x="583.8" y="409.5" text-anchor="middle" class="axis">+0.00</text>
<line x1="676.5" y1="18" x2="676.5" y2="393" stroke="#e6e9ee" stroke-width="1"/>
<text x="676.5" y="409.5" text-anchor="middle" class="axis">+0.05</text>
<line x1="769.2" y1="18" x2="769.2" y2="393" stroke="#e6e9ee" stroke-width="1"/>
<text x="769.2" y="409.5" text-anchor="middle" class="axis">+0.10</text>
<line x1="861.9" y1="18" x2="861.9" y2="393" stroke="#e6e9ee" stroke-width="1"/>
<text x="861.9" y="409.5" text-anchor="middle" class="axis">+0.15</text>
<line x1="954.6" y1="18" x2="954.6" y2="393" stroke="#e6e9ee" stroke-width="1"/>
<text x="954.6" y="409.5" text-anchor="middle" class="axis">+0.20</text>
<line x1="1047.3" y1="18" x2="1047.3" y2="393" stroke="#e6e9ee" stroke-width="1"/>
<text x="1047.3" y="409.5" text-anchor="middle" class="axis">+0.25</text>
<line x1="1140.0" y1="18" x2="1140.0" y2="393" stroke="#e6e9ee" stroke-width="1"/>
<text x="1140.0" y="409.5" text-anchor="middle" class="axis">+0.30</text>
<line x1="250" y1="393" x2="1140" y2="393" stroke="#6b7280" stroke-width="1"/>
<text x="695.0" y="426.8" text-anchor="middle" class="axis">Standardized coefficient</text>
<text x="30" y="36" class="group">Mathematics regular exams</text>
<text x="92" y="57.8" class="feat" fill="#1266b0">Active days</text>
<line x1="655.3" y1="54.8" x2="810.1" y2="54.8" stroke="#1266b0" stroke-width="2.2"/>
<line x1="655.3" y1="51" x2="655.3" y2="58.5" stroke="#1266b0" stroke-width="1.9"/>
<line x1="810.1" y1="51" x2="810.1" y2="58.5" stroke="#1266b0" stroke-width="1.9"/>
<circle cx="732.7" cy="54.8" r="5.6" fill="#1266b0" stroke="#fff" stroke-width="1.3"/>
<text x="732.7" y="48.8" text-anchor="middle" class="coef">+0.080 [+0.039, +0.122]</text>
<text x="92" y="81" class="feat" fill="#b43b3b">Event volume</text>
<line x1="328.6" y1="78" x2="528.0" y2="78" stroke="#b43b3b" stroke-width="2.2"/>
<line x1="328.6" y1="74.2" x2="328.6" y2="81.8" stroke="#b43b3b" stroke-width="1.9"/>
<line x1="528.0" y1="74.2" x2="528.0" y2="81.8" stroke="#b43b3b" stroke-width="1.9"/>
<rect x="423.3" y="74.2" width="10" height="10" fill="#b43b3b" stroke="#fff" stroke-width="1.2"/>
<text x="428.3" y="72" text-anchor="middle" class="coef">-0.084 [-0.138, -0.030]</text>
<line x1="30" y1="94.5" x2="1140" y2="94.5" stroke="#f0f2f5" stroke-width="1"/>
<text x="30" y="109.5" class="group">Mathematics course-embedded</text>
<text x="92" y="131.2" class="feat" fill="#1266b0">Active days</text>
<line x1="648.1" y1="128.2" x2="778.7" y2="128.2" stroke="#1266b0" stroke-width="2.2"/>
<line x1="648.1" y1="124.5" x2="648.1" y2="132" stroke="#1266b0" stroke-width="1.9"/>
<line x1="778.7" y1="124.5" x2="778.7" y2="132" stroke="#1266b0" stroke-width="1.9"/>
<circle cx="713.4" cy="128.2" r="5.6" fill="#1266b0" stroke="#fff" stroke-width="1.3"/>
<text x="713.4" y="122.2" text-anchor="middle" class="coef">+0.070 [+0.035, +0.105]</text>
<text x="92" y="154.5" class="feat" fill="#b43b3b">Event volume</text>
<line x1="399.7" y1="151.5" x2="560.8" y2="151.5" stroke="#b43b3b" stroke-width="2.2"/>
<line x1="399.7" y1="147.8" x2="399.7" y2="155.2" stroke="#b43b3b" stroke-width="1.9"/>
<line x1="560.8" y1="147.8" x2="560.8" y2="155.2" stroke="#b43b3b" stroke-width="1.9"/>
<rect x="475.3" y="147.8" width="10" height="10" fill="#b43b3b" stroke="#fff" stroke-width="1.2"/>
<text x="480.3" y="145.5" text-anchor="middle" class="coef">-0.056 [-0.099, -0.012]</text>
<line x1="30" y1="168" x2="1140" y2="168" stroke="#f0f2f5" stroke-width="1"/>
<text x="30" y="183" class="group">Mathematics unit/chapter</text>
<text x="92" y="204.8" class="feat" fill="#1266b0">Active days</text>
<line x1="573.0" y1="201.8" x2="739.8" y2="201.8" stroke="#1266b0" stroke-width="2.2"/>
<line x1="573.0" y1="198" x2="573.0" y2="205.5" stroke="#1266b0" stroke-width="1.9"/>
<line x1="739.8" y1="198" x2="739.8" y2="205.5" stroke="#1266b0" stroke-width="1.9"/>
<circle cx="656.4" cy="201.8" r="5.6" fill="#1266b0" stroke="#fff" stroke-width="1.3"/>
<text x="656.4" y="195.8" text-anchor="middle" class="coef">+0.039 [-0.006, +0.084]</text>
<text x="92" y="228" class="feat" fill="#b43b3b">Event volume</text>
<line x1="540.5" y1="225" x2="718.0" y2="225" stroke="#b43b3b" stroke-width="2.2"/>
<line x1="540.5" y1="221.2" x2="540.5" y2="228.8" stroke="#b43b3b" stroke-width="1.9"/>
<line x1="718.0" y1="221.2" x2="718.0" y2="228.8" stroke="#b43b3b" stroke-width="1.9"/>
<rect x="624.2" y="221.2" width="10" height="10" fill="#b43b3b" stroke="#fff" stroke-width="1.2"/>
<text x="629.2" y="219" text-anchor="middle" class="coef">+0.025 [-0.023, +0.072]</text>
<line x1="30" y1="241.5" x2="1140" y2="241.5" stroke="#f0f2f5" stroke-width="1"/>
<text x="30" y="256.5" class="group">English regular exams</text>
<text x="92" y="278.2" class="feat" fill="#1266b0">Active days</text>
<line x1="542.1" y1="275.2" x2="861.2" y2="275.2" stroke="#1266b0" stroke-width="2.2"/>
<line x1="542.1" y1="271.5" x2="542.1" y2="279" stroke="#1266b0" stroke-width="1.9"/>
<line x1="861.2" y1="271.5" x2="861.2" y2="279" stroke="#1266b0" stroke-width="1.9"/>
<circle cx="701.6" cy="275.2" r="5.6" fill="#1266b0" stroke="#fff" stroke-width="1.3"/>
<text x="701.6" y="269.2" text-anchor="middle" class="coef">+0.064 [-0.022, +0.150]</text>
<text x="92" y="301.5" class="feat" fill="#b43b3b">Event volume</text>
<line x1="356.9" y1="298.5" x2="730.1" y2="298.5" stroke="#b43b3b" stroke-width="2.2"/>
<line x1="356.9" y1="294.8" x2="356.9" y2="302.2" stroke="#b43b3b" stroke-width="1.9"/>
<line x1="730.1" y1="294.8" x2="730.1" y2="302.2" stroke="#b43b3b" stroke-width="1.9"/>
<rect x="538.5" y="294.8" width="10" height="10" fill="#b43b3b" stroke="#fff" stroke-width="1.2"/>
<text x="543.5" y="292.5" text-anchor="middle" class="coef">-0.022 [-0.122, +0.079]</text>
<line x1="30" y1="315" x2="1140" y2="315" stroke="#f0f2f5" stroke-width="1"/>
<text x="30" y="330" class="group">English external Benesse</text>
<text x="92" y="351.8" class="feat" fill="#1266b0">Active days</text>
<line x1="644.3" y1="348.8" x2="1041.3" y2="348.8" stroke="#1266b0" stroke-width="2.2"/>
<line x1="644.3" y1="345" x2="644.3" y2="352.5" stroke="#1266b0" stroke-width="1.9"/>
<line x1="1041.3" y1="345" x2="1041.3" y2="352.5" stroke="#1266b0" stroke-width="1.9"/>
<circle cx="842.8" cy="348.8" r="5.6" fill="#1266b0" stroke="#fff" stroke-width="1.3"/>
<text x="842.8" y="342.8" text-anchor="middle" class="coef">+0.140 [+0.033, +0.247]</text>
<text x="92" y="375" class="feat" fill="#b43b3b">Event volume</text>
<line x1="94.6" y1="372" x2="643.5" y2="372" stroke="#b43b3b" stroke-width="2.2"/>
<line x1="94.6" y1="368.2" x2="94.6" y2="375.8" stroke="#b43b3b" stroke-width="1.9"/>
<line x1="643.5" y1="368.2" x2="643.5" y2="375.8" stroke="#b43b3b" stroke-width="1.9"/>
<rect x="364.1" y="368.2" width="10" height="10" fill="#b43b3b" stroke="#fff" stroke-width="1.2"/>
<text x="369.1" y="366" text-anchor="middle" class="coef">-0.116 [-0.264, +0.032]</text>
</svg>
