<svg xmlns="http://www.w3.org/2000/svg" width="920" height="430" viewBox="0 0 920 430">
<rect width="100%" height="100%" fill="#ffffff"/>
<text x="24" y="34" font-family="Arial" font-size="20" font-weight="700">Assessment-Fixed-Effects Model: Global Standardized Effects</text>
<text x="24" y="56" font-family="Arial" font-size="12" fill="#555">Outcome: normalized score residual; predictors: 3-month same-course BookRoll behavior residuals; intervals: student-cluster bootstrap</text>
<line x1="509.0" x2="509.0" y1="52" y2="354" stroke="#888" stroke-width="1"/>
<line x1="276.5" x2="276.5" y1="354" y2="360" stroke="#777"/>
<text x="276.5" y="376" font-family="Arial" font-size="11" text-anchor="middle" fill="#444">-0.15</text>
<line x1="354.0" x2="354.0" y1="354" y2="360" stroke="#777"/>
<text x="354.0" y="376" font-family="Arial" font-size="11" text-anchor="middle" fill="#444">-0.10</text>
<line x1="431.5" x2="431.5" y1="354" y2="360" stroke="#777"/>
<text x="431.5" y="376" font-family="Arial" font-size="11" text-anchor="middle" fill="#444">-0.05</text>
<line x1="509.0" x2="509.0" y1="354" y2="360" stroke="#777"/>
<text x="509.0" y="376" font-family="Arial" font-size="11" text-anchor="middle" fill="#444">+0.00</text>
<line x1="586.5" x2="586.5" y1="354" y2="360" stroke="#777"/>
<text x="586.5" y="376" font-family="Arial" font-size="11" text-anchor="middle" fill="#444">+0.05</text>
<line x1="664.0" x2="664.0" y1="354" y2="360" stroke="#777"/>
<text x="664.0" y="376" font-family="Arial" font-size="11" text-anchor="middle" fill="#444">+0.10</text>
<line x1="741.5" x2="741.5" y1="354" y2="360" stroke="#777"/>
<text x="741.5" y="376" font-family="Arial" font-size="11" text-anchor="middle" fill="#444">+0.15</text>
<line x1="819.0" x2="819.0" y1="354" y2="360" stroke="#777"/>
<text x="819.0" y="376" font-family="Arial" font-size="11" text-anchor="middle" fill="#444">+0.20</text>
<text x="24" y="75" font-family="Arial" font-size="13" dominant-baseline="middle">Event volume</text>
<line x1="529.9" x2="678.6" y1="75" y2="75" stroke="#1f7a4d" stroke-width="3" stroke-linecap="round"/>
<circle cx="600.5" cy="75" r="6" fill="#1f7a4d"/>
<text x="865" y="75" font-family="Arial" font-size="12" dominant-baseline="middle" fill="#333">+0.059</text>
<text x="24" y="121" font-family="Arial" font-size="13" dominant-baseline="middle">Active days</text>
<line x1="562.4" x2="705.5" y1="121" y2="121" stroke="#1f7a4d" stroke-width="3" stroke-linecap="round"/>
<circle cx="638.1" cy="121" r="6" fill="#1f7a4d"/>
<text x="865" y="121" font-family="Arial" font-size="12" dominant-baseline="middle" fill="#333">+0.083</text>
<text x="24" y="167" font-family="Arial" font-size="13" dominant-baseline="middle">Navigation share</text>
<line x1="273.6" x2="385.5" y1="167" y2="167" stroke="#9b2c2c" stroke-width="3" stroke-linecap="round"/>
<circle cx="333.8" cy="167" r="6" fill="#9b2c2c"/>
<text x="865" y="167" font-family="Arial" font-size="12" dominant-baseline="middle" fill="#333">-0.113</text>
<text x="24" y="213" font-family="Arial" font-size="13" dominant-baseline="middle">Memo share</text>
<line x1="425.5" x2="535.5" y1="213" y2="213" stroke="#666666" stroke-width="3" stroke-linecap="round"/>
<circle cx="483.9" cy="213" r="6" fill="#666666"/>
<text x="865" y="213" font-family="Arial" font-size="12" dominant-baseline="middle" fill="#333">-0.016</text>
<text x="24" y="259" font-family="Arial" font-size="13" dominant-baseline="middle">Marker share</text>
<line x1="479.1" x2="524.7" y1="259" y2="259" stroke="#666666" stroke-width="3" stroke-linecap="round"/>
<circle cx="504.9" cy="259" r="6" fill="#666666"/>
<text x="865" y="259" font-family="Arial" font-size="12" dominant-baseline="middle" fill="#333">-0.003</text>
<text x="24" y="305" font-family="Arial" font-size="13" dominant-baseline="middle">Open/close share</text>
<line x1="444.7" x2="494.9" y1="305" y2="305" stroke="#9b2c2c" stroke-width="3" stroke-linecap="round"/>
<circle cx="471.0" cy="305" r="6" fill="#9b2c2c"/>
<text x="865" y="305" font-family="Arial" font-size="12" dominant-baseline="middle" fill="#333">-0.025</text>
<text x="540.0" y="412" font-family="Arial" font-size="12" text-anchor="middle" fill="#444">Standardized coefficient</text>
</svg>
